<svg width="282" height="253" viewBox="0 0 282 253" fill="none" xmlns="http://www.w3.org/2000/svg">
<rect width="282" height="253" rx="24" fill="white"/>
<g clip-path="url(#clip0_376_2021)">
<path d="M140.088 114.613C140.088 121.309 135.424 125.374 129.29 125.374C122.406 125.374 117.459 120.292 117.459 113.998C117.453 112.491 117.747 110.999 118.322 109.607C118.898 108.215 119.745 106.951 120.813 105.889C121.881 104.826 123.149 103.987 124.544 103.418C125.939 102.85 127.433 102.565 128.94 102.579C133.134 102.579 136.669 104.645 138.517 107.584L134.262 110.025C133.34 108.586 131.381 107.461 128.909 107.461C125.219 107.461 122.452 110.182 122.452 114.032C122.452 117.758 125.081 120.488 129.339 120.488C132.248 120.488 134.157 119.206 134.941 117.106H129.1V112.719H140.085L140.088 114.613Z" fill="#222223"/>
<path d="M152.135 108.961V114.284C150.195 113.976 147.439 114.754 147.439 117.85V124.922H142.748V109.275H147.439V112.061C148.067 109.964 150.155 108.961 152.135 108.961Z" fill="#222223"/>
<path d="M153.072 117.1C153.064 115.456 153.544 113.847 154.452 112.477C155.359 111.106 156.653 110.036 158.168 109.402C159.685 108.767 161.355 108.597 162.968 108.913C164.582 109.229 166.064 110.016 167.23 111.176C168.394 112.335 169.189 113.814 169.512 115.425C169.836 117.037 169.674 118.708 169.047 120.227C168.419 121.747 167.356 123.045 165.99 123.959C164.624 124.873 163.017 125.361 161.374 125.361C160.283 125.374 159.201 125.17 158.191 124.76C157.18 124.35 156.261 123.743 155.489 122.973C154.715 122.204 154.104 121.288 153.689 120.28C153.274 119.271 153.064 118.19 153.072 117.1ZM164.964 117.1C164.964 114.877 163.4 113.41 161.367 113.41C159.335 113.41 157.767 114.88 157.767 117.1C157.767 119.32 159.332 120.789 161.367 120.789C163.403 120.789 164.964 119.323 164.964 117.1Z" fill="#222223"/>
<path d="M193.915 109.275L188.895 124.925H184.525L182.022 116.568L179.516 124.925H175.136L170.139 109.275H175.145L177.398 117.662L179.84 109.275H184.221L186.662 117.662L188.895 109.275H193.915Z" fill="#222223"/>
<path d="M201.737 113.783V119.317C201.737 120.661 202.892 120.787 204.958 120.661V124.925C198.809 125.54 197.041 123.695 197.041 119.323V113.789H194.539V109.275H197.041V106.312L201.737 104.903V109.275H204.958V113.783H201.737Z" fill="#222223"/>
<path d="M222.642 115.317V124.925H217.947V116.009C217.947 114.068 216.717 113.158 215.225 113.158C213.504 113.158 212.314 114.161 212.314 116.384V124.925H207.619V103.015H212.314V110.748C213.159 109.589 214.724 108.839 216.791 108.839C219.948 108.839 222.642 111.092 222.642 115.317Z" fill="#222223"/>
<path d="M140.314 151.404H135.3V138.666L129.633 147.96H129.07L123.404 138.666V151.404H118.398V129.497H123.404L129.35 139.231L135.297 129.497H140.314V151.404Z" fill="#222223"/>
<path d="M159.96 135.757V151.404H155.265V149.934C154.231 151.124 152.701 151.844 150.601 151.844C146.502 151.844 143.123 148.243 143.123 143.579C143.123 138.915 146.505 135.317 150.601 135.317C152.701 135.317 154.231 136.037 155.265 137.227V135.757H159.96ZM155.265 143.579C155.265 141.233 153.7 139.763 151.541 139.763C149.383 139.763 147.818 141.233 147.818 143.579C147.818 145.925 149.383 147.398 151.541 147.398C153.7 147.398 155.265 145.928 155.265 143.579Z" fill="#222223"/>
<path d="M162.619 143.579C162.619 138.918 166.155 135.317 170.921 135.317C172.348 135.298 173.755 135.658 174.997 136.36C176.24 137.062 177.273 138.082 177.993 139.314L173.891 141.694C173.359 140.599 172.233 139.941 170.856 139.941C168.821 139.941 167.32 141.411 167.32 143.569C167.32 145.728 168.815 147.204 170.85 147.204C172.227 147.204 173.383 146.546 173.884 145.451L177.986 147.819C177.277 149.063 176.248 150.095 175.003 150.805C173.759 151.515 172.347 151.878 170.915 151.856C166.143 151.843 162.619 148.243 162.619 143.579Z" fill="#222223"/>
<path d="M194.884 141.796V151.404H190.189V142.487C190.189 140.547 188.959 139.64 187.468 139.64C185.746 139.64 184.556 140.643 184.556 142.862V151.407H179.861V129.497H184.556V137.227C185.402 136.071 186.966 135.317 189.033 135.317C192.194 135.317 194.884 137.571 194.884 141.796Z" fill="#222223"/>
<path d="M197.635 131.563C197.635 131.006 197.8 130.461 198.109 129.998C198.419 129.535 198.859 129.174 199.374 128.961C199.888 128.748 200.454 128.692 201.001 128.801C201.547 128.909 202.049 129.178 202.443 129.572C202.837 129.965 203.105 130.467 203.213 131.014C203.323 131.56 203.266 132.126 203.053 132.641C202.84 133.155 202.479 133.595 202.016 133.905C201.553 134.214 201.008 134.379 200.451 134.379C199.707 134.371 198.996 134.071 198.469 133.545C197.943 133.018 197.644 132.307 197.635 131.563ZM198.117 135.757H202.812V151.404H198.117V135.757Z" fill="#222223"/>
<path d="M221.265 141.796V151.404H216.567V142.487C216.567 140.547 215.337 139.64 213.845 139.64C212.124 139.64 210.934 140.643 210.934 142.862V151.407H206.242V135.757H210.937V137.227C211.782 136.071 213.347 135.317 215.414 135.317C218.574 135.317 221.265 137.571 221.265 141.796Z" fill="#222223"/>
<path d="M232.435 147.65C232.99 147.666 233.544 147.569 234.06 147.365C234.578 147.16 235.047 146.852 235.441 146.46L239.195 148.612C237.658 150.743 235.346 151.837 232.372 151.837C227.022 151.837 223.705 148.237 223.705 143.573C223.705 138.908 227.088 135.311 232.029 135.311C236.597 135.311 239.98 138.847 239.98 143.573C239.982 144.204 239.918 144.833 239.792 145.451H228.681C229.273 147.087 230.709 147.65 232.435 147.65ZM235.321 141.952C234.82 140.138 233.412 139.493 232.004 139.493C230.22 139.493 229.031 140.369 228.594 141.952H235.321Z" fill="#222223"/>
<path d="M71.096 103.095L41.9269 132.255C41.3332 132.852 41 133.66 41 134.502C41 135.345 41.3332 136.153 41.9269 136.75L56.1194 150.939C56.6176 151.437 57.2927 151.716 57.9965 151.716C58.7004 151.716 59.3755 151.437 59.8736 150.939L69.9061 140.916C70.1039 140.717 70.2145 140.447 70.2136 140.166V131.179C70.2129 130.978 70.153 130.782 70.0413 130.616C69.9296 130.449 69.7711 130.319 69.5859 130.242C69.4006 130.165 69.1967 130.145 68.9999 130.183C68.803 130.222 68.6219 130.318 68.4795 130.459L61.6938 137.257C61.608 137.344 61.5057 137.413 61.3931 137.46C61.2804 137.507 61.1595 137.532 61.0373 137.532C60.9152 137.532 60.7943 137.507 60.6815 137.46C60.5689 137.413 60.4666 137.344 60.3809 137.257L56.7497 133.623C56.6629 133.537 56.5938 133.435 56.5467 133.322C56.4996 133.21 56.4753 133.089 56.4753 132.967C56.4753 132.844 56.4996 132.724 56.5467 132.611C56.5938 132.498 56.6629 132.396 56.7497 132.31L68.7778 120.282L72.6733 116.387C72.8112 116.248 72.9751 116.139 73.1555 116.064C73.336 115.989 73.5295 115.95 73.7248 115.95C73.9202 115.95 74.1136 115.989 74.2941 116.064C74.4745 116.139 74.6384 116.248 74.7763 116.387L78.6719 120.282L90.6999 132.31C90.7868 132.396 90.8558 132.498 90.903 132.611C90.95 132.724 90.9743 132.844 90.9743 132.967C90.9743 133.089 90.95 133.21 90.903 133.322C90.8558 133.435 90.7868 133.537 90.6999 133.623L87.0688 137.257C86.983 137.344 86.8807 137.413 86.7681 137.46C86.6553 137.507 86.5344 137.532 86.4122 137.532C86.2902 137.532 86.1693 137.507 86.0565 137.46C85.9439 137.413 85.8416 137.344 85.7558 137.257L78.9579 130.459C78.8155 130.317 78.6342 130.22 78.4368 130.181C78.2395 130.142 78.0349 130.162 77.849 130.239C77.6631 130.316 77.5041 130.446 77.3922 130.613C77.2804 130.781 77.2207 130.977 77.2207 131.179V140.166C77.2201 140.447 77.3306 140.716 77.5282 140.916L87.5607 150.949C88.0588 151.446 88.7339 151.725 89.4378 151.725C90.1416 151.725 90.8167 151.446 91.3148 150.949L105.51 136.75C105.807 136.454 106.041 136.103 106.202 135.717C106.362 135.33 106.444 134.916 106.444 134.498C106.444 134.079 106.362 133.665 106.202 133.279C106.041 132.892 105.807 132.541 105.51 132.246L76.3629 103.095C76.0177 102.748 75.6073 102.473 75.1554 102.285C74.7035 102.097 74.2189 102 73.7294 102C73.24 102 72.7553 102.097 72.3034 102.285C71.8514 102.473 71.4411 102.748 71.096 103.095Z" fill="#F96500"/>
</g>
<defs>
<clipPath id="clip0_376_2021">
<rect width="198.98" height="50" fill="white" transform="translate(41 102)"/>
</clipPath>
</defs>
</svg>
