<svg width="34" height="34" viewBox="0 0 34 34" fill="none" xmlns="http://www.w3.org/2000/svg">
<g id="Group 40">
<circle id="Ellipse 1" cx="17" cy="17" r="17" fill="#EEBBB4"/>
<g id="nimbus:money">
<path id="Vector" d="M21.3206 17.0001C20.7612 16.5312 20.0502 16.2823 19.3206 16.3001H14.6306C14.4167 16.3055 14.204 16.2677 14.0051 16.1889C13.8062 16.1102 13.6253 15.9921 13.4731 15.8418C13.3209 15.6915 13.2006 15.512 13.1194 15.3141C13.0382 15.1162 12.9978 14.9039 13.0006 14.6901C12.9953 14.6068 12.9953 14.5233 13.0006 14.4401C13.0636 14.0579 13.264 13.7118 13.5641 13.4669C13.8643 13.2221 14.2435 13.0951 14.6306 13.1101H19.2506C19.6274 13.1097 19.9921 13.2433 20.2797 13.4869C20.5672 13.7305 20.7589 14.0683 20.8206 14.4401H22.3206C22.2578 13.669 21.9071 12.9498 21.3383 12.4255C20.7695 11.9011 20.0242 11.61 19.2506 11.6101H17.6706V9.31006H16.4206V11.6101H14.6306C13.8569 11.61 13.1116 11.9011 12.5428 12.4255C11.974 12.9498 11.6233 13.669 11.5606 14.4401C11.5553 14.5233 11.5553 14.6068 11.5606 14.6901C11.5606 15.0932 11.64 15.4924 11.7942 15.8649C11.9485 16.2374 12.1747 16.5758 12.4597 16.8609C13.0355 17.4366 13.8163 17.7601 14.6306 17.7601H19.3706C19.5827 17.7547 19.7938 17.7919 19.9913 17.8694C20.1889 17.9469 20.3689 18.0632 20.5208 18.2114C20.6727 18.3596 20.7934 18.5366 20.8758 18.7322C20.9582 18.9278 21.0006 19.1378 21.0006 19.3501C21.0102 19.4632 21.0102 19.5769 21.0006 19.6901C20.9212 20.0419 20.7245 20.3563 20.4428 20.5816C20.1612 20.807 19.8113 20.9298 19.4506 20.9301H14.7506C14.3899 20.9298 14.0399 20.807 13.7583 20.5816C13.4766 20.3563 13.28 20.0419 13.2006 19.6901H11.6906C11.7765 20.4414 12.1359 21.1349 12.7002 21.6383C13.2645 22.1418 13.9943 22.42 14.7506 22.4201H16.4206V24.6901H17.6706V22.4201H19.3706C20.1268 22.42 20.8566 22.1418 21.4209 21.6383C21.9852 21.1349 22.3446 20.4414 22.4306 19.6901V19.3501C22.4293 18.9009 22.3293 18.4575 22.1374 18.0514C21.9456 17.6452 21.6667 17.2863 21.3206 17.0001Z" fill="#491246"/>
</g>
</g>
</svg>
