<svg width="34" height="34" viewBox="0 0 34 34" fill="none" xmlns="http://www.w3.org/2000/svg">
<g id="Group 42">
<circle id="Ellipse 1" cx="17" cy="17" r="17" fill="#EEBBB4"/>
<g id="lsicon:contract-across-filled">
<path id="Vector" fill-rule="evenodd" clip-rule="evenodd" d="M10.75 8.875C10.75 8.70924 10.8158 8.55027 10.9331 8.43306C11.0503 8.31585 11.2092 8.25 11.375 8.25H22.625C22.7908 8.25 22.9497 8.31585 23.0669 8.43306C23.1842 8.55027 23.25 8.70924 23.25 8.875V15.125H22V9.5H12V24.5H15.75V25.75H11.375C11.2092 25.75 11.0503 25.6842 10.9331 25.5669C10.8158 25.4497 10.75 25.2908 10.75 25.125V8.875ZM21.0163 12.9113L16.6412 17.2863C16.524 17.4034 16.3651 17.4692 16.1994 17.4692C16.0336 17.4692 15.8747 17.4034 15.7575 17.2863L13.2575 14.7863L14.1412 13.9012L16.1988 15.96L20.1325 12.0262L21.0163 12.9113ZM19.0062 17.74C19.3875 17.2463 19.9862 17 20.75 17C21.5125 17 22.1125 17.2463 22.4938 17.74C22.8525 18.2025 22.9375 18.7788 22.9375 19.265C22.9375 19.7625 22.8475 20.2625 22.7687 20.6512L22.71 20.93C22.682 21.0605 22.6558 21.1913 22.6313 21.3225L22.625 21.3763V22H23.875C24.0408 22 24.1997 22.0658 24.3169 22.1831C24.4342 22.3003 24.5 22.4592 24.5 22.625V25.125C24.5 25.2908 24.4342 25.4497 24.3169 25.5669C24.1997 25.6842 24.0408 25.75 23.875 25.75H17.625C17.4592 25.75 17.3003 25.6842 17.1831 25.5669C17.0658 25.4497 17 25.2908 17 25.125V22.625C17 22.4592 17.0658 22.3003 17.1831 22.1831C17.3003 22.0658 17.4592 22 17.625 22H18.875V21.3763L18.8687 21.3225L18.8387 21.1575L18.79 20.93L18.7313 20.6512C18.629 20.1964 18.5725 19.7324 18.5625 19.2662C18.5625 18.7787 18.6475 18.2038 19.0062 17.7413" fill="#491246"/>
</g>
</g>
</svg>
