<svg width="34" height="34" viewBox="0 0 34 34" fill="none" xmlns="http://www.w3.org/2000/svg">
<g id="Group 39">
<circle id="Ellipse 1" cx="17" cy="17" r="17" fill="#EEBBB4"/>
<g id="icons8:idea">
<path id="Vector" d="M10.4379 7.29004L9.43214 8.29432L10.9286 9.79004L11.9329 8.78575L10.4379 7.29004ZM23.5629 7.29004L22.0664 8.78575L23.0714 9.79004L24.5671 8.29504L23.5629 7.29004ZM17 7.73575C16.7643 7.73766 16.5262 7.7529 16.2857 7.78147H16.2643C13.3671 8.11361 11.0614 10.4543 10.6607 13.3386C10.3407 15.66 11.2979 17.765 12.8929 19.1208C13.5452 19.6776 13.9865 20.4417 14.1429 21.285V25.5708H15.7714C16.02 25.9972 16.4736 26.285 17 26.285C17.5264 26.285 17.98 25.9972 18.2286 25.5708H19.8571V22.7136H19.9243V21.865C19.9243 20.8179 20.4686 19.7622 21.3529 18.9415C22.5357 17.7572 23.4286 16.075 23.4286 14.1429C23.4286 10.6143 20.5243 7.7029 17 7.73575ZM17 9.16432C19.7607 9.12575 22 11.3858 22 14.1429C22 15.6386 21.3071 16.9558 20.3479 17.9143L20.3707 17.9372C19.4178 18.8166 18.8014 20.0008 18.6279 21.2858H15.5036C15.3464 20.0615 14.8214 18.8765 13.8293 18.0265C12.5671 16.955 11.815 15.3408 12.0664 13.5179C12.3786 11.2679 14.2043 9.45861 16.4414 9.21075C16.6261 9.18514 16.8122 9.16988 16.9986 9.16504L17 9.16432ZM7 14.1429V15.5715H9.14286V14.1429H7ZM24.8571 14.1429V15.5715H27V14.1429H24.8571ZM10.9286 19.9243L9.43286 21.4193L10.4379 22.4243L11.9321 20.9286L10.9286 19.9243ZM23.0714 19.9243L22.0671 20.9286L23.5621 22.4243L24.5671 21.4193L23.0714 19.9243ZM15.5714 22.7143H18.4286V24.1429H15.5714V22.7143Z" fill="#491246"/>
</g>
</g>
</svg>
