<svg width="282" height="253" viewBox="0 0 282 253" fill="none" xmlns="http://www.w3.org/2000/svg">
<rect width="282" height="253" rx="24" fill="white"/>
<path d="M98.0163 102.667L98.1035 102.58C98.1907 102.405 98.2778 102.318 98.365 102.231C98.4522 102.144 98.5394 102.056 98.6266 101.969L98.7137 101.882C101.068 99.0052 102.463 97.1744 102.637 97C99.4984 100.487 92.7854 106.328 92.7854 106.328H87.9905C71.0774 130.477 58.4362 134.749 58.4362 134.749C67.0671 128.559 77.0929 114.959 83.1084 106.154C83.3699 105.718 83.7186 105.282 83.9802 104.933C84.0673 104.846 84.1545 104.672 84.2417 104.585C84.3289 104.41 84.5033 104.236 84.5904 104.062C84.6776 103.887 84.852 103.713 84.9392 103.539C84.9392 103.539 84.9392 103.539 84.9392 103.451C85.2007 103.103 85.4622 102.667 85.7238 102.318C85.9853 101.882 86.3341 101.446 86.5956 101.01C86.6828 100.923 86.6828 100.836 86.77 100.836C87.2059 100.139 87.5546 99.5282 87.9033 99.0923C87.8161 99.0052 87.9033 98.918 87.9905 98.8308C88.0777 98.6564 88.252 98.4821 88.3392 98.3077C87.0315 100.313 83.893 103.887 81.8006 106.328H68.8979C64.2773 106.328 59.9182 109.728 58.5234 114.262L50.6771 140.067C46.4924 143.031 41.3487 144.775 41 144.949C41.0872 144.949 41.6974 144.862 42.918 144.601C43.0923 144.601 43.2667 144.514 43.4411 144.514H43.5282C43.7026 144.514 43.877 144.426 44.0513 144.426H44.1385C44.3129 144.339 44.4872 144.339 44.6616 144.252C44.7488 144.252 44.7488 144.252 44.836 144.165C45.0103 144.078 45.1847 144.078 45.359 143.99C45.4462 143.99 45.4462 143.99 45.5334 143.903C45.7078 143.816 45.8821 143.816 46.0565 143.729C46.1437 143.729 46.2309 143.642 46.318 143.642C46.4924 143.555 46.6668 143.555 46.8411 143.467C46.9283 143.467 47.0155 143.38 47.1027 143.38C47.277 143.293 47.4514 143.293 47.6257 143.206C47.7129 143.206 47.8873 143.119 47.9745 143.119C48.1488 143.031 48.3232 143.031 48.4976 142.944C48.6719 142.857 48.7591 142.857 48.9335 142.77C49.0206 142.683 49.195 142.683 49.2822 142.596C53.9028 140.765 60.267 137.539 68.0261 131.96C79.8827 123.416 91.7393 110.164 98.0163 102.667Z" fill="url(#paint0_linear_376_2047)"/>
<path d="M95.3141 120.888L97.0578 115.221C96.9706 115.308 79.7088 133.791 63.929 140.329C60.7905 141.811 56.7802 143.119 53.293 144.078H80.319C84.9396 144.078 89.2987 140.678 90.6936 136.145L92.6987 129.519C83.0216 139.283 70.3804 140.591 70.3804 140.591C79.6216 137.191 88.6884 129.257 94.5295 123.329C94.6167 123.242 94.7911 123.067 94.8782 122.98C98.3655 119.406 100.719 116.616 101.155 116.093C98.9757 118.185 96.9706 119.755 95.3141 120.888Z" fill="url(#paint1_linear_376_2047)"/>
<path d="M154.682 116.79L142.564 133.005L140.298 116.79H138.467L140.821 134.749H143.175L156.6 116.79H154.682Z" fill="#677294"/>
<path d="M110.134 116.79H108.39L102.811 134.749H114.754L115.277 133.18H105.077L110.134 116.79Z" fill="#677294"/>
<path d="M160.524 118.272H170.724L171.247 116.79H159.216L153.637 134.749H165.842L166.278 133.18H155.903L157.996 126.38H167.847L168.283 124.898H158.432L160.524 118.272Z" fill="#677294"/>
<path d="M118.416 134.749H130.621L131.057 133.18H120.683L122.775 126.38H132.539L133.062 124.898H123.211L125.216 118.272H135.503L135.939 116.79H123.996L118.416 134.749Z" fill="#677294"/>
<path d="M186.243 118.01C185.633 117.226 184.499 116.79 182.756 116.79H175.345L169.766 134.749H171.509L176.566 118.359H182.145C183.279 118.359 184.063 118.621 184.412 119.144C184.761 119.58 184.761 120.364 184.499 121.236C183.802 123.416 181.622 124.81 177.961 125.334H177.786L177.438 126.38L180.838 134.749H183.104L179.704 126.467C183.366 125.421 185.633 123.677 186.417 121.236C186.853 119.841 186.766 118.708 186.243 118.01Z" fill="#677294"/>
<path d="M234.367 116.88C228.526 116.88 224.602 119.844 222.772 125.772C221.202 131.701 223.208 134.665 228.874 134.665C234.628 134.665 238.464 131.701 240.295 125.772C242.213 119.844 240.208 116.88 234.367 116.88ZM236.982 125.685C235.762 129.783 233.321 131.788 229.746 131.788C226.085 131.788 224.951 129.783 226.172 125.685C227.392 121.675 229.833 119.67 233.495 119.67C237.069 119.67 238.203 121.675 236.982 125.685Z" fill="#4F5771"/>
<path d="M216.494 116.967H208.474L203.068 134.49H206.381L210.915 119.844H215.361C216.843 119.844 217.366 120.454 216.93 121.762C216.32 123.68 214.402 124.813 211.002 125.423L210.566 126.905L213.53 134.577H217.715L214.489 126.993C217.715 125.598 219.633 123.854 220.33 121.762C221.376 118.536 220.069 116.967 216.494 116.967Z" fill="#4F5771"/>
<path d="M200.715 116.967H192.52L187.027 134.577H190.253L194.786 119.844H199.581C200.802 119.844 201.238 120.367 200.889 121.5C200.366 123.244 198.535 124.377 195.571 124.9L195.135 127.777C200.192 126.993 203.243 124.9 204.376 121.413C205.248 118.449 204.028 116.967 200.715 116.967Z" fill="#4F5771"/>
<defs>
<linearGradient id="paint0_linear_376_2047" x1="48.4643" y1="141.184" x2="91.2804" y2="93.1577" gradientUnits="userSpaceOnUse">
<stop stop-color="#549BFF"/>
<stop offset="1" stop-color="#84EDFE"/>
</linearGradient>
<linearGradient id="paint1_linear_376_2047" x1="61.4099" y1="152.725" x2="104.226" y2="104.699" gradientUnits="userSpaceOnUse">
<stop stop-color="#549BFF"/>
<stop offset="1" stop-color="#84EDFE"/>
</linearGradient>
</defs>
</svg>
