<svg width="56" height="56" viewBox="0 0 56 56" fill="none" xmlns="http://www.w3.org/2000/svg">
<g id="icon">
<rect width="56" height="56" rx="28" fill="#F1563A"/>
<g id="Isolation_Mode">
<path id="Vector" fill-rule="evenodd" clip-rule="evenodd" d="M40.332 40H35.4008V31.601C35.4008 29.2982 34.5258 28.0113 32.7031 28.0113C30.7203 28.0113 29.6844 29.3505 29.6844 31.601V40H24.932V24H29.6844V26.1552C29.6844 26.1552 31.1133 23.5112 34.5086 23.5112C37.9023 23.5112 40.332 25.5836 40.332 29.8698V40ZM19.2625 21.9049C17.6437 21.9049 16.332 20.5829 16.332 18.9525C16.332 17.322 17.6437 16 19.2625 16C20.8812 16 22.1922 17.322 22.1922 18.9525C22.1922 20.5829 20.8812 21.9049 19.2625 21.9049ZM16.8086 40H21.7641V24H16.8086V40Z" fill="#ECE8DE"/>
</g>
</g>
</svg>
