<svg width="6885" height="6346" viewBox="0 0 6885 6346" fill="none" xmlns="http://www.w3.org/2000/svg">
<g clip-path="url(#clip0_107_941)">
<path d="M6885 0V4969.25H5852.25C5662.18 4969.25 5508 5123.4 5508 5313.44V6346H4131V5313.44C4131 5123.4 3976.82 4969.25 3786.75 4969.25H3098.25C2908.18 4969.25 2754 5123.4 2754 5313.44V6346H1377V5313.44C1377 5123.4 1222.82 4969.25 1032.75 4969.25H0V0H1377V4625.06C1377 4815.09 1531.18 4969.25 1721.25 4969.25H2409.75C2599.82 4969.25 2754 4815.09 2754 4625.06V2065.13H4131V4625.06C4131 4815.09 4285.18 4969.25 4475.25 4969.25H5163.75C5353.82 4969.25 5508 4815.09 5508 4625.06V0H6885Z" fill="white"/>
</g>
<defs>
<clipPath id="clip0_107_941">
<rect width="6885" height="6346" fill="white"/>
</clipPath>
</defs>
</svg>
