<svg width="102" height="33" viewBox="0 0 102 33" fill="none" xmlns="http://www.w3.org/2000/svg">
<g id="Component 2">
<path id="Vector" d="M34.9787 6C36.0126 6 36.7751 5.72108 37.266 5.16159C37.7553 4.60376 38 3.88157 38 3C38 2.11843 37.7553 1.43276 37.266 0.859989C36.7766 0.285556 36.0142 0 34.9787 0C33.9432 0 33.2234 0.287216 32.734 0.859989C32.2447 1.43442 32 2.14665 32 3C32 3.85335 32.2447 4.60376 32.734 5.16159C33.2234 5.72108 33.9716 6 34.9787 6Z" fill="#F1563A"/>
<path id="Vector_2" d="M30 9V12.8403H33.6276V32H39V12.8403V9H33.6276H30Z" fill="#F1563A"/>
<path id="Vector_3" d="M69.5663 2H64.8785V8.70972H51.4476V2H46.7598V8.70972H43V12.4272H46.7598V23.4959C46.7598 25.6328 47.0903 27.3275 47.7529 28.5816C48.414 29.8358 49.3929 30.7185 50.688 31.2314C51.9831 31.7443 53.5738 32 55.46 32H58.8813V27.641H55.0802C53.9249 27.641 53.0319 27.321 52.3978 26.6795C51.7638 26.0379 51.4476 25.1198 51.4476 23.9236V12.4272H64.8785V23.4959C64.8785 25.6328 65.209 27.3275 65.8717 28.5816C66.5327 29.8358 67.5116 30.7185 68.8067 31.2314C70.1018 31.7443 71.6925 32 73.5787 32H77V27.641H73.1989C72.0437 27.641 71.1506 27.321 70.5165 26.6795C69.8825 26.0379 69.5663 25.1198 69.5663 23.9236V12.4272H77V8.70972H69.5663V2Z" fill="#F1563A"/>
<path id="Vector_4" d="M101.997 19.6085C101.997 17.5803 101.594 15.6894 100.788 13.9343C99.9828 12.1808 98.7743 10.7545 97.1646 9.65205C95.5533 8.55123 93.5408 8 91.1238 8C89.2633 8 87.6301 8.34023 86.2288 9.02231C84.826 9.7044 83.6661 10.6171 82.7508 11.7605C81.8339 12.9055 81.1473 14.1944 80.6881 15.6305C80.2304 17.065 80 18.5502 80 20.0862V20.9122C80 22.4203 80.2288 23.8908 80.6881 25.3253C81.1458 26.7598 81.8339 28.0504 82.7508 29.1954C83.6677 30.3404 84.848 31.2596 86.2915 31.9564C87.7351 32.6516 89.4295 33 91.3746 33C93.1803 33 94.79 32.681 96.2069 32.0431C97.6238 31.4068 98.7962 30.4925 99.7273 29.305C100.657 28.1174 101.276 26.7255 101.582 25.1307H97.0408C96.8182 26.0875 96.2069 26.9201 95.2085 27.63C94.2085 28.3399 92.931 28.6948 91.3762 28.6948C89.8213 28.6948 88.5439 28.3399 87.5439 27.63C86.5439 26.9201 85.8072 25.9501 85.3354 24.7168C84.9796 23.7894 84.7586 22.7671 84.6708 21.6515H102V19.6085H101.997ZM84.7994 18.2182C84.9169 17.4969 85.094 16.8295 85.3323 16.2177C85.8041 15.0008 86.5266 14.0439 87.4984 13.3487C88.4702 12.6536 89.6787 12.3052 91.1223 12.3052C92.5658 12.3052 93.663 12.6176 94.5799 13.2391C95.4969 13.8623 96.1897 14.7473 96.663 15.8906C96.9498 16.5874 97.1489 17.3644 97.2618 18.2166H84.7994V18.2182Z" fill="#F1563A"/>
<path id="Vector_5" d="M20 25.7627C20 26.4515 19.4402 27.0102 18.75 27.0102H16.25C15.5598 27.0102 15 26.4515 15 25.7627V16.4847H10V25.7627C10 26.4515 9.44016 27.0102 8.75 27.0102H6.25C5.55985 27.0102 5 26.4515 5 25.7627V9H0V27.0102H3.75C4.44015 27.0102 5 27.5689 5 28.2576V32H10V28.2576C10 27.5689 10.5598 27.0102 11.25 27.0102H13.75C14.4402 27.0102 15 27.5689 15 28.2576V32H20V28.2576C20 27.5689 20.5598 27.0102 21.25 27.0102H25V9H20V25.7627Z" fill="#F1563A"/>
</g>
</svg>
